<svg xmlns="http://www.w3.org/2000/svg" viewBox="0 0 512 512">
  <rect width="512" height="512" rx="96" fill="#fffaf0"/>
  <circle cx="256" cy="256" r="206" fill="none" stroke="#b8862b" stroke-width="18"/>
  <path d="M112 284c78-58 130-91 252-108-30 22-54 48-72 78 38-13 72-12 108 2-82 28-136 62-186 108-12-34-44-58-102-80z" fill="#0b3a78"/>
  <path d="M191 219c-28 2-56 10-87 25 37-46 86-73 153-82-24 18-45 37-66 57z" fill="#2367d8"/>
  <path d="M273 154c43 6 87 25 128 58-48-11-94-8-139 10 8-25 11-45 11-68z" fill="#b8862b"/>
</svg>
